<svg xml:space="preserve" style="enable-background:new 0 0 226.77 226.77;" viewBox="0 0 226.77 226.77" y="0px" x="0px" xmlns:xlink="http://www.w3.org/1999/xlink" xmlns="http://www.w3.org/2000/svg" id="图层_1" version="1.1">
<style type="text/css">
	.st0{fill:#F7F7F7;stroke:#231815;stroke-width:0.5;stroke-linecap:round;stroke-linejoin:round;stroke-miterlimit:10;}
	.st1{fill:none;stroke:#231815;stroke-width:0.5;stroke-linecap:round;stroke-linejoin:round;stroke-miterlimit:10;}
	.st2{fill:#F6D38D;stroke:#231815;stroke-width:0.5;stroke-linecap:round;stroke-linejoin:round;stroke-miterlimit:10;}
	.st3{fill:#231815;stroke:#231815;stroke-width:0.5;stroke-linecap:round;stroke-linejoin:round;stroke-miterlimit:10;}
	.st4{fill:#879B78;stroke:#000000;stroke-width:0.5;stroke-linecap:round;stroke-linejoin:round;stroke-miterlimit:10;}
	.st5{fill:#3A5E4E;stroke:#231815;stroke-width:0.5;stroke-linecap:round;stroke-linejoin:round;stroke-miterlimit:10;}
	.st6{fill:none;stroke:#000000;stroke-width:0.5;stroke-linecap:round;stroke-linejoin:round;stroke-miterlimit:10;}
	.st7{fill:#879B78;stroke:#231815;stroke-width:0.5;stroke-linecap:round;stroke-linejoin:round;stroke-miterlimit:10;}
	.st8{fill:#F6C27C;stroke:#231815;stroke-width:0.5;stroke-linecap:round;stroke-linejoin:round;stroke-miterlimit:10;}
</style>
<g>
	<g>
		<path d="M135.83,90.9c0,0,6.77,12.54,14.01,15.88c7.24,3.34,9.01-3.39,9.01-3.39s1.46-3.99-8.29-10.89
			c-9.75-6.9-11.01-6.32-11.01-6.32L135.83,90.9" class="st0"></path>
		<path d="M141.08,79.81c0,0,13.82,3.49,21.17,0.42c7.36-3.07,3.59-8.93,3.59-8.93s-1.95-3.78-13.63-1.26
			c-11.68,2.52-12.11,3.84-12.11,3.84L141.08,79.81" class="st0"></path>
		<path d="M139.95,74.04c0,0,13.98-2.75,19.32-8.66c5.34-5.92-0.57-9.61-0.57-9.61s-3.38-2.58-12.86,4.68
			s-9.31,8.64-9.31,8.64L139.95,74.04" class="st0"></path>
		<path d="M136.31,69.17c0,0,11.74-8.08,14.29-15.63c2.55-7.55-4.34-8.59-4.34-8.59s-4.13-1.03-9.94,9.41
			c-5.81,10.43-5.11,11.63-5.11,11.63L136.31,69.17" class="st0"></path>
		<path d="M126.62,65.12c0,0,2.12-14.09-1.66-21.11s-9.24-2.7-9.24-2.7s-3.57,2.31,0.08,13.69s5,11.67,5,11.67
			L126.62,65.12" class="st0"></path>
		<path d="M132.59,66.42c0,0,6.71-12.57,5.5-20.45s-7.8-5.63-7.8-5.63s-4.14,0.99-4.5,12.93s0.81,12.67,0.81,12.67
			L132.59,66.42" class="st0"></path>
		<path d="M120.68,66.26c0,0-3.4-13.84-9.56-18.89c-6.16-5.06-9.57,1.02-9.57,1.02s-2.42,3.5,5.28,12.63
			s9.07,8.89,9.07,8.89L120.68,66.26" class="st0"></path>
		<path d="M139.59,85.77c0,0,11.17,8.85,19.14,9.07s6.94-6.67,6.94-6.67s-0.23-4.25-11.91-6.74
			c-11.68-2.49-12.61-1.47-12.61-1.47L139.59,85.77" class="st0"></path>
		<path d="M135.34,91.41c0,0,10.6,9.53,12.15,17.35s-5.41,7.96-5.41,7.96s-4.22,0.49-8.64-10.61s-3.56-12.19-3.56-12.19
			L135.34,91.41" class="st0"></path>
		<path d="M123.32,93.92c0,0,0.15,14.25-4.56,20.68s-9.52,1.39-9.52,1.39s-3.21-2.78,1.97-13.54s6.57-10.87,6.57-10.87
			L123.32,93.92" class="st0"></path>
		<path d="M117.84,90.65c0,0-5.95,12.95-12.96,16.75s-9.21-2.81-9.21-2.81s-1.72-3.89,7.57-11.4s10.58-7.02,10.58-7.02
			L117.84,90.65" class="st0"></path>
		<path d="M114.1,85.59c0,0-10.61,9.51-18.55,10.22s-7.33-6.24-7.33-6.24s-0.03-4.25,11.48-7.45s12.5-2.23,12.5-2.23
			L114.1,85.59" class="st0"></path>
		<path d="M112.93,74.18c0,0-13.93-2.98-19.17-8.99s0.73-9.6,0.73-9.6s3.42-2.53,12.78,4.9s9.16,8.79,9.16,8.79
			L112.93,74.18" class="st0"></path>
		<path d="M112.29,80.52c0,0-13.79,3.57-21.17,0.54c-7.37-3.02-3.64-8.91-3.64-8.91s1.93-3.79,13.62-1.34
			s12.13,3.76,12.13,3.76L112.29,80.52" class="st0"></path>
		<path d="M129.47,93.87c0,0,5.98,12.93,4.32,20.73c-1.66,7.8-8.11,5.18-8.11,5.18s-4.07-1.22-3.76-13.16
			c0.32-11.94,1.53-12.61,1.53-12.61L129.47,93.87" class="st0"></path>
		<path d="M146.28,114.89c0,0,25.43,47.41,24.9,104.75" class="st1"></path>
		<circle r="14.7" cy="79.75" cx="126.47" class="st2"></circle>
	</g>
	<g>
		<circle r="0.67" cy="76.14" cx="120.43" class="st3"></circle>
		<circle r="0.67" cy="75.8" cx="127.99" class="st3"></circle>
		<path d="M122.45,78.13c0,0.16,1.53,2.18,3.27-0.28" class="st1"></path>
	</g>
	<g>
		<path d="M216.06,161.69c-2.3-17.59-6.75-30.54-10.95-42.72c-2.89-8.41-7.06-19.29-12.97-31.67
			c0,0-13.1,47.91-13.76,73.72c0,0-0.5,10.38,4.32,58.62c11.7,0,23.4,0,35.11,0c0.2-7.33,0.33-17.49-0.03-29.6
			C217.39,177.02,217.19,170.35,216.06,161.69z" class="st4"></path>
		<path d="M194.9,122.89c0,0,5.76,84.61,12.58,96.74" class="st1"></path>
		<path d="M83.28,111.44c0,0,26.88-7.11,45.39,12.64s15.32,16.59,19.05,18.96c3.73,2.37,26.97,9.74,30.67,17.98
			c1.17,16.82,2.35,33.64,3.52,50.46c-5.81-2.25-14.14-6.04-23.02-12.39c-18.46-13.19-30.35-29.36-36.99-43.1
			C101.36,113.5,88.1,112.23,83.28,111.44z" class="st5"></path>
		<path d="M114.16,122.89c0,0,7.82,2.13,17.02,18.25s44.3,34.45,48.08,40.45" class="st6"></path>
		<path d="M3.93,174.64c0,0,32.36-10.9,75.71,10.19s60.69,34.81,65.69,34.81s-68.78,0-68.78,0s-19.54-19.97-35.44-28.37
			C25.21,182.87,3.93,174.64,3.93,174.64z" class="st7"></path>
		<path d="M106.69,219.64c0,0-27.07-21.93-42.3-28.55" class="st1"></path>
	</g>
	<g>
		<path d="M84.29,153.42c0,0-5.13-7.41,2.36-9.44c7.49-2.03,11.07,10.74,11.07,10.74s-3.17,0.73-7.04,0
			C86.81,153.99,84.29,153.42,84.29,153.42z" class="st0"></path>
		<path d="M109.3,152.22c0,0,3.13-8.45-4.63-8.56c-7.76-0.11-8.05,13.16-8.05,13.16s3.25-0.08,6.82-1.75
			C107,153.39,109.3,152.22,109.3,152.22z" class="st0"></path>
		<path d="M100.39,175.97c0,0,1.09,17.96,18.53,29.58" class="st6"></path>
		<path d="M93.73,154.4c0,0,2.93-3.17,8.63,0c5.7,3.17-2.12,21.08-2.12,21.08s-11.07-13.59-8.79-17.34
			C93.73,154.4,93.73,154.4,93.73,154.4z" class="st8"></path>
		<path d="M99.67,174.43c0-0.41-0.29-9.04,1.48-15.38c1.77-6.35,4.7-12.13,8.61-12.62c3.91-0.49,7.03,0.81,8.07,3.74
			c1.04,2.93,0.07,5.29-1.24,8.14s-10.87,6.1-13.33,10.26C100.81,172.72,99.67,174.43,99.67,174.43z" class="st0"></path>
		<path d="M100.58,172.64c-0.09-0.4-1.69-8.88-4.88-14.67c-3.2-5.79-7.45-10.76-11.54-10.34
			c-4.09,0.42-6.99,2.4-7.41,5.5c-0.42,3.1,1.09,5.18,3.04,7.66c1.95,2.48,12.42,3.47,15.84,6.96
			C99.04,171.23,100.58,172.64,100.58,172.64z" class="st0"></path>
		<path d="M100.39,175.97c0,0-2.27-1.89-8.41-2.83s-10.54-6.28-11.84-7.99c-1.31-1.71-2.95-4.89-2.98-7.95
			c0,0,1.43,3.7,8.68,5.47C93.08,164.45,99.27,165.21,100.39,175.97z" class="st7"></path>
		<path d="M100.43,175.97c0,0,1.79-2.35,7.57-4.63c5.78-2.28,8.87-8.47,9.77-10.42s1.79-5.43,1.14-8.41
			c0,0-0.57,3.93-7.24,7.27C104.98,163.11,99.12,165.23,100.43,175.97z" class="st7"></path>
	</g>
	<g>
		<circle r="0.56" cy="156.1" cx="95.31" class="st3"></circle>
		<circle r="0.56" cy="155.82" cx="101.58" class="st3"></circle>
		<path d="M96.98,157.75c0,0.13,1.27,1.81,2.71-0.23" class="st1"></path>
	</g>
</g>
</svg>
