<svg xml:space="preserve" style="enable-background:new 0 0 226.77 226.77;" viewBox="0 0 226.77 226.77" y="0px" x="0px" xmlns:xlink="http://www.w3.org/1999/xlink" xmlns="http://www.w3.org/2000/svg" id="图层_1" version="1.1">
<style type="text/css">
	.st0{fill:#027E60;stroke:#000000;stroke-width:0.5;stroke-linecap:round;stroke-linejoin:round;stroke-miterlimit:10;}
</style>
<g>
	<g>
		<path d="M168.26,151.38c0,0,21.66,21.97,25.58,68.22h-19.8c0,0,7.01-31.92-9.08-62.65S168.26,151.38,168.26,151.38z" class="st0"></path>
		<g>
			<path d="M168.4,115.45c-3.45,0-6.44,1.85-8.11,4.59c-1.67-2.74-4.66-4.59-8.11-4.59c-5.26,0-9.52,4.26-9.52,9.52
				c0,0,0,0.5,0.14,1.36c0.05,0.36,0.12,0.71,0.21,1.06c0.9,3.92,4.21,11.99,16.46,19.19c0,0,19.06-10.59,18.45-21.6
				C177.92,119.71,173.66,115.45,168.4,115.45z" class="st0"></path>
			<line y2="124.94" x2="160.3" y1="119.45" x1="160.3" class="st0"></line>
			<line y2="129.86" x2="160.3" y1="127.58" x1="160.3" class="st0"></line>
		</g>
		<g>
			<path d="M128.27,138.25c0,3.45,1.85,6.44,4.59,8.11c-2.74,1.67-4.59,4.66-4.59,8.11c0,5.26,4.26,9.52,9.52,9.52
				c0,0,0.5,0,1.36-0.14c0.36-0.05,0.71-0.12,1.06-0.21c3.92-0.9,11.99-4.21,19.19-16.46c0,0-10.59-19.06-21.6-18.45
				C132.53,128.73,128.27,133,128.27,138.25z" class="st0"></path>
			<line y2="146.36" x2="137.76" y1="146.36" x1="132.27" class="st0"></line>
			<line y2="146.36" x2="142.68" y1="146.36" x1="140.4" class="st0"></line>
		</g>
		<g>
			<path d="M150.67,177.69c3.45,0,6.44-1.85,8.11-4.59c1.67,2.74,4.66,4.59,8.11,4.59c5.26,0,9.52-4.26,9.52-9.52
				c0,0,0-0.5-0.14-1.36c-0.05-0.36-0.12-0.71-0.21-1.06c-0.9-3.92-4.21-11.99-16.46-19.19c0,0-19.06,10.59-18.45,21.6
				C141.15,173.43,145.42,177.69,150.67,177.69z" class="st0"></path>
			<line y2="168.2" x2="158.78" y1="173.69" x1="158.78" class="st0"></line>
			<line y2="163.28" x2="158.78" y1="165.57" x1="158.78" class="st0"></line>
		</g>
		<g>
			<path d="M191.42,155.35c0-3.45-1.85-6.44-4.59-8.11c2.74-1.67,4.59-4.66,4.59-8.11c0-5.26-4.26-9.52-9.52-9.52
				c0,0-0.5,0-1.36,0.14c-0.36,0.05-0.71,0.12-1.06,0.21c-3.92,0.9-11.99,4.21-19.19,16.46c0,0,10.59,19.06,21.6,18.45
				C187.15,164.87,191.42,160.61,191.42,155.35z" class="st0"></path>
			<line y2="147.25" x2="181.92" y1="147.25" x1="187.42" class="st0"></line>
			<line y2="147.25" x2="177" y1="147.25" x1="179.29" class="st0"></line>
		</g>
	</g>
	<g>
		<path d="M103.31,121.53c-3.58,9.66-7.04,19.9-10.25,30.71c-7.18,24.11-11.91,46.79-15,67.38h19.8
			c-0.15-9.43,0.1-21.63,1.57-35.79c1.14-10.98,3.76-30.23,10.7-54.01c14.36-49.2,36.94-82.62,35.66-83.3
			c-0.97-0.52-11.88,16.93-19.79,29.57c-0.69,1.1-1.58,2.51-2.25,3.62C118.74,87.84,111.52,101.03,103.31,121.53z" class="st0"></path>
		<g>
			<path d="M138.36,14.18c3.45,0,6.44,1.85,8.11,4.59c1.67-2.74,4.66-4.59,8.11-4.59c5.26,0,9.52,4.26,9.52,9.52
				c0,0,0,0.5-0.14,1.36c-0.05,0.36-0.12,0.71-0.21,1.06c-0.9,3.92-4.21,11.99-16.46,19.19c0,0-19.06-10.59-18.45-21.6
				C128.84,18.44,133.1,14.18,138.36,14.18z" class="st0"></path>
			<line y2="23.67" x2="146.46" y1="18.18" x1="146.46" class="st0"></line>
			<line y2="28.59" x2="146.46" y1="26.3" x1="146.46" class="st0"></line>
		</g>
		<g>
			<path d="M178.49,36.98c0,3.45-1.85,6.44-4.59,8.11c2.74,1.67,4.59,4.66,4.59,8.11c0,5.26-4.26,9.52-9.52,9.52
				c0,0-0.5,0-1.36-0.14c-0.36-0.05-0.71-0.12-1.06-0.21c-3.92-0.9-11.99-4.21-19.19-16.46c0,0,10.59-19.06,21.6-18.45
				C174.22,27.46,178.49,31.72,178.49,36.98z" class="st0"></path>
			<line y2="45.08" x2="168.99" y1="45.08" x1="174.49" class="st0"></line>
			<line y2="45.08" x2="164.07" y1="45.08" x1="166.36" class="st0"></line>
		</g>
		<g>
			<path d="M156.09,76.42c-3.45,0-6.44-1.85-8.11-4.59c-1.67,2.74-4.66,4.59-8.11,4.59c-5.26,0-9.52-4.26-9.52-9.52
				c0,0,0-0.5,0.14-1.36c0.05-0.36,0.12-0.71,0.21-1.06c0.9-3.92,4.21-11.99,16.46-19.19c0,0,19.06,10.59,18.45,21.6
				C165.61,72.16,161.34,76.42,156.09,76.42z" class="st0"></path>
			<line y2="66.92" x2="147.98" y1="72.42" x1="147.98" class="st0"></line>
			<line y2="62" x2="147.98" y1="64.29" x1="147.98" class="st0"></line>
		</g>
		<g>
			<path d="M115.34,54.08c0-3.45,1.85-6.44,4.59-8.11c-2.74-1.67-4.59-4.66-4.59-8.11c0-5.26,4.26-9.52,9.52-9.52
				c0,0,0.5,0,1.36,0.14c0.36,0.05,0.71,0.12,1.06,0.21c3.92,0.9,11.99,4.21,19.19,16.46c0,0-10.59,19.06-21.6,18.45
				C119.6,63.6,115.34,59.33,115.34,54.08z" class="st0"></path>
			<line y2="45.97" x2="124.83" y1="45.97" x1="119.34" class="st0"></line>
			<line y2="45.97" x2="129.75" y1="45.97" x1="127.47" class="st0"></line>
		</g>
	</g>
	<g>
		<path d="M65.79,129.67c0,0-27.82,28.9-32.85,89.75h25.43c0,0-9.01-41.99,11.66-82.42S65.79,129.67,65.79,129.67z" class="st0"></path>
		<g>
			<path d="M65.6,82.4c4.43,0,8.27,2.43,10.42,6.04c2.15-3.61,5.99-6.04,10.42-6.04c6.75,0,12.23,5.61,12.23,12.52
				c0,0,0,0.66-0.18,1.78c-0.07,0.47-0.15,0.93-0.27,1.39c-1.15,5.16-5.4,15.77-21.14,25.24c0,0-24.48-13.93-23.7-28.42
				C53.38,88,58.85,82.4,65.6,82.4z" class="st0"></path>
			<line y2="94.88" x2="76.01" y1="87.66" x1="76.01" class="st0"></line>
			<line y2="101.36" x2="76.01" y1="98.35" x1="76.01" class="st0"></line>
		</g>
		<g>
			<path d="M117.14,112.39c0,4.54-2.38,8.47-5.9,10.67c3.52,2.2,5.9,6.13,5.9,10.67c0,6.92-5.47,12.52-12.23,12.52
				c0,0-0.65,0-1.74-0.18c-0.46-0.07-0.91-0.16-1.36-0.28c-5.04-1.18-15.39-5.53-24.64-21.65c0,0,13.6-25.07,27.74-24.28
				C111.67,99.87,117.14,105.48,117.14,112.39z" class="st0"></path>
			<line y2="123.05" x2="104.95" y1="123.05" x1="112" class="st0"></line>
			<line y2="123.05" x2="98.63" y1="123.05" x1="101.57" class="st0"></line>
		</g>
		<g>
			<path d="M88.37,164.27c-4.43,0-8.27-2.43-10.42-6.04c-2.15,3.61-5.99,6.04-10.42,6.04
				c-6.75,0-12.23-5.61-12.23-12.52c0,0,0-0.66,0.18-1.78c0.07-0.47,0.15-0.93,0.27-1.39c1.15-5.16,5.4-15.77,21.14-25.24
				c0,0,24.48,13.93,23.7,28.42C100.6,158.67,95.12,164.27,88.37,164.27z" class="st0"></path>
			<line y2="151.79" x2="77.96" y1="159.01" x1="77.96" class="st0"></line>
			<line y2="145.31" x2="77.96" y1="148.32" x1="77.96" class="st0"></line>
		</g>
		<g>
			<path d="M36.04,134.88c0-4.54,2.38-8.47,5.9-10.67c-3.52-2.2-5.9-6.13-5.9-10.67c0-6.92,5.47-12.52,12.23-12.52
				c0,0,0.65,0,1.74,0.18c0.46,0.07,0.91,0.16,1.36,0.28c5.04,1.18,15.39,5.53,24.64,21.65c0,0-13.6,25.07-27.74,24.28
				C41.52,147.41,36.04,141.8,36.04,134.88z" class="st0"></path>
			<line y2="124.22" x2="48.23" y1="124.22" x1="41.18" class="st0"></line>
			<line y2="124.22" x2="54.55" y1="124.22" x1="51.61" class="st0"></line>
		</g>
	</g>
</g>
</svg>
